<?xml version="1.0" encoding="UTF-8" standalone="no"?>
<svg width="23px" height="23px" viewBox="0 0 23 23" version="1.1" xmlns="http://www.w3.org/2000/svg" xmlns:xlink="http://www.w3.org/1999/xlink">
    <!-- Generator: Sketch 43.1 (39012) - http://www.bohemiancoding.com/sketch -->
    <title>noun_1000563 copy</title>
    <desc>Created with Sketch.</desc>
    <defs></defs>
    <g id="Symbols" stroke="none" stroke-width="1" fill="none" fill-rule="evenodd">
        <g id="Checklist_Desktop" transform="translate(-37.000000, -43.000000)" fill-rule="nonzero" fill="#626262">
            <g id="Checklist" transform="translate(0.000000, 0.974609)">
                <g id="noun_1000563-copy" transform="translate(37.500000, 42.382812)">
                    <path d="M17.4873929,7.2208777 C17.1198616,6.86499726 16.5330826,6.87400019 16.1769373,7.24206106 L9.00292783,14.6517355 L5.27942279,11.233006 C4.90235899,10.8866581 4.31610952,10.9118133 3.97002638,11.2888771 C3.62394324,11.6659409 3.64883369,12.2521904 4.02589749,12.5982735 L8.41403043,16.6273485 C8.59170586,16.7904604 8.81651426,16.8714867 9.04052829,16.8714867 C9.28307776,16.8714867 9.52509764,16.776956 9.70674495,16.5894833 L17.5085763,8.53133328 C17.8647215,8.1635372 17.855189,7.57675814 17.4873929,7.2208777 Z M11.1212638,0.132395997 C5.06202857,0.132395997 0.132395997,5.06202857 0.132395997,11.1212638 C0.132395997,17.180499 5.06202857,22.1101316 11.1212638,22.1101316 C17.180499,22.1101316 22.1101316,17.180499 22.1101316,11.1212638 C22.1101316,5.06202857 17.180499,0.132395997 11.1212638,0.132395997 Z M11.1212638,20.2565876 C6.08412567,20.2565876 1.98593996,16.1584019 1.98593996,11.1212638 C1.98593996,6.08412567 6.08412567,1.98593996 11.1212638,1.98593996 C16.1584019,1.98593996 20.2565876,6.08412567 20.2565876,11.1212638 C20.2565876,16.1584019 16.1584019,20.2565876 11.1212638,20.2565876 Z" id="Shape"></path>
                </g>
            </g>
        </g>
    </g>
</svg>